<svg xmlns="http://www.w3.org/2000/svg" width="1440" height="1024" viewBox="0 0 1440 1024" role="img" aria-labelledby="title desc">
  <title id="title">LoopOps Command Center prototype</title>
  <desc id="desc">Recommended product direction for looloomi: left loop rail, center runnable loop, right review and log summary.</desc>
  <defs>
    <style>
      .bg{fill:#f5f5f7}.surface{fill:#fff}.soft{fill:#f0f2f5}.line{stroke:#d7dbe2;stroke-width:1}.text{fill:#1d1d1f;font-family:-apple-system,BlinkMacSystemFont,"SF Pro Text","Helvetica Neue",Arial,sans-serif}.muted{fill:#6e7480}.tiny{font-size:12px}.body{font-size:14px}.h1{font-size:28px;font-weight:700}.h2{font-size:17px;font-weight:700}.h3{font-size:14px;font-weight:700}.blue{fill:#0a84ff}.green{fill:#34c759}.amber{fill:#b7791f}.red{fill:#ff3b30}.pill{fill:#eaf3ff}.selected{fill:#e8f1ff;stroke:#77aefb;stroke-width:1.2}.shadow{filter:drop-shadow(0 12px 24px rgba(20,28,44,.08))}
    </style>
  </defs>
  <rect class="bg" width="1440" height="1024"/>
  <rect x="22" y="22" width="92" height="980" rx="24" class="surface shadow"/>
  <circle cx="68" cy="68" r="20" fill="#e8f1ff" stroke="#aac7ff"/>
  <text x="57" y="75" class="text h2" fill="#0a84ff">∞</text>
  <rect x="44" y="128" width="48" height="48" rx="14" fill="#e8f1ff"/>
  <text x="57" y="158" class="text body blue">⌘</text>
  <rect x="44" y="194" width="48" height="48" rx="14" fill="#f2f3f6"/>
  <text x="58" y="224" class="text body muted">◷</text>
  <rect x="44" y="260" width="48" height="48" rx="14" fill="#f2f3f6"/>
  <text x="58" y="290" class="text body muted">⚙</text>

  <rect x="138" y="28" width="1274" height="64" rx="20" class="surface shadow"/>
  <text x="164" y="66" class="text body muted">Search loops, run logs, skills, saved prompts...</text>
  <rect x="1062" y="44" width="104" height="32" rx="16" fill="#edf4ff"/>
  <text x="1085" y="65" class="text tiny blue">Runner idle</text>
  <rect x="1178" y="44" width="102" height="32" rx="16" fill="#f4f5f7"/>
  <text x="1202" y="65" class="text tiny muted">Review 3</text>
  <rect x="1292" y="44" width="92" height="32" rx="16" class="blue"/>
  <text x="1315" y="65" class="text tiny" fill="#fff">New loop</text>

  <rect x="138" y="116" width="320" height="858" rx="24" class="surface shadow"/>
  <text x="164" y="154" class="text h2">Loop Rail</text>
  <text x="164" y="176" class="text tiny muted">Domains and saved runnable loops</text>
  <rect x="164" y="204" width="268" height="42" rx="13" class="selected"/>
  <text x="184" y="230" class="text h3">Crypto</text><text x="364" y="230" class="text tiny blue">5 loops</text>
  <rect x="164" y="254" width="268" height="42" rx="13" class="soft"/>
  <text x="184" y="280" class="text h3">Markets</text><text x="352" y="280" class="text tiny muted">3 loops</text>
  <rect x="164" y="304" width="268" height="42" rx="13" class="soft"/>
  <text x="184" y="330" class="text h3">Office</text><text x="360" y="330" class="text tiny muted">4 loops</text>

  <text x="164" y="386" class="text h3">Saved Loops</text>
  <rect x="164" y="406" width="268" height="78" rx="14" class="selected"/>
  <text x="184" y="432" class="text h3">BTC Alpha Monitor</text>
  <text x="184" y="454" class="text tiny muted">CMC + WeChat context + review gate</text>
  <circle cx="188" cy="470" r="5" class="green"/><text x="202" y="474" class="text tiny muted">scheduled hourly</text>
  <rect x="164" y="494" width="268" height="72" rx="14" class="soft"/>
  <text x="184" y="520" class="text h3">DeFi Opportunity Scan</text>
  <text x="184" y="542" class="text tiny muted">manual run · review-only</text>
  <rect x="164" y="576" width="268" height="72" rx="14" class="soft"/>
  <text x="184" y="602" class="text h3">Thesis Review</text>
  <text x="184" y="624" class="text tiny muted">saved template · no trading</text>

  <text x="164" y="692" class="text h3">Running / Review</text>
  <rect x="164" y="712" width="268" height="62" rx="14" fill="#fff8e8" stroke="#ead49a"/>
  <text x="184" y="738" class="text h3">ETH Regime Check</text>
  <text x="184" y="758" class="text tiny muted">waiting for human review</text>
  <rect x="164" y="784" width="268" height="62" rx="14" fill="#eef8f0" stroke="#b9dfc1"/>
  <text x="184" y="810" class="text h3">Office Minutes Draft</text>
  <text x="184" y="830" class="text tiny muted">completed · ready to refine</text>

  <rect x="482" y="116" width="600" height="858" rx="24" class="surface shadow"/>
  <text x="514" y="154" class="text h1">BTC Alpha Monitor</text>
  <text x="514" y="182" class="text body muted">A reusable crypto loop that scans market regime, CMC returned results, and chat context.</text>
  <rect x="514" y="214" width="118" height="30" rx="15" class="pill"/><text x="537" y="234" class="text tiny blue">Crypto</text>
  <rect x="642" y="214" width="154" height="30" rx="15" fill="#eef8f0"/><text x="667" y="234" class="text tiny" fill="#1f8a3b">Scheduled</text>
  <rect x="806" y="214" width="154" height="30" rx="15" fill="#fff8e8"/><text x="828" y="234" class="text tiny amber">Review-only</text>

  <text x="514" y="292" class="text h2">Loop Definition</text>
  <line x1="514" y1="310" x2="1048" y2="310" class="line"/>
  <text x="514" y="346" class="text h3">Trigger</text><text x="650" y="346" class="text body muted">Every hour, or manual run from GUI</text>
  <text x="514" y="388" class="text h3">Input logs</text><text x="650" y="388" class="text body muted">CMC Skill Hub · WeChat context · prior run notes</text>
  <text x="514" y="430" class="text h3">Skill chain</text><text x="650" y="430" class="text body muted">Market regime → Thesis review → Candidate funnel</text>
  <text x="514" y="472" class="text h3">Feedback gate</text><text x="650" y="472" class="text body muted">No usable evidence means wait; no generated prices</text>
  <text x="514" y="514" class="text h3">Exit condition</text><text x="650" y="514" class="text body muted">Candidate list, review gaps, next check conditions</text>

  <text x="514" y="584" class="text h2">Run Timeline</text>
  <rect x="514" y="612" width="534" height="68" rx="16" class="soft"/>
  <circle cx="546" cy="646" r="8" class="green"/><text x="570" y="642" class="text h3">Inputs collected</text><text x="570" y="662" class="text tiny muted">3 sources · secrets redacted</text>
  <rect x="514" y="692" width="534" height="68" rx="16" class="soft"/>
  <circle cx="546" cy="726" r="8" class="blue"/><text x="570" y="722" class="text h3">Skill chain running</text><text x="570" y="742" class="text tiny muted">CMC result usable · prices blocked</text>
  <rect x="514" y="772" width="534" height="68" rx="16" fill="#fff8e8" stroke="#ead49a"/>
  <circle cx="546" cy="806" r="8" class="amber"/><text x="570" y="802" class="text h3">Needs review</text><text x="570" y="822" class="text tiny muted">Check evidence gaps before follow-up</text>

  <rect x="514" y="882" width="138" height="44" rx="14" class="blue"/><text x="548" y="910" class="text h3" fill="#fff">Run now</text>
  <rect x="664" y="882" width="116" height="44" rx="14" class="soft"/><text x="694" y="910" class="text h3">Clone</text>
  <rect x="792" y="882" width="128" height="44" rx="14" class="soft"/><text x="824" y="910" class="text h3">Schedule</text>

  <rect x="1106" y="116" width="306" height="858" rx="24" class="surface shadow"/>
  <text x="1132" y="154" class="text h2">Review Output</text>
  <text x="1132" y="176" class="text tiny muted">One final answer, then action</text>
  <rect x="1132" y="210" width="252" height="170" rx="16" class="soft"/>
  <text x="1154" y="240" class="text h3">Market stance</text>
  <text x="1154" y="268" class="text body muted">Neutral. Evidence is incomplete. No trade plan is generated.</text>
  <text x="1154" y="322" class="text tiny muted">Next: rerun with BTC / ETH symbols and complete perp scanner.</text>
  <text x="1132" y="430" class="text h3">Shareable Log</text>
  <rect x="1132" y="450" width="252" height="54" rx="13" class="soft"/>
  <text x="1152" y="482" class="text body muted">Inputs · Steps · Output · Review</text>
  <rect x="1132" y="520" width="252" height="54" rx="13" class="soft"/>
  <text x="1152" y="552" class="text body muted">Clone as new loop</text>
  <rect x="1132" y="590" width="252" height="54" rx="13" class="soft"/>
  <text x="1152" y="622" class="text body muted">Copy review summary</text>
  <text x="1132" y="710" class="text h3">Human decisions</text>
  <rect x="1132" y="732" width="116" height="40" rx="12" class="blue"/><text x="1164" y="757" class="text tiny" fill="#fff">Approve</text>
  <rect x="1262" y="732" width="122" height="40" rx="12" class="soft"/><text x="1290" y="757" class="text tiny">Fork</text>
  <rect x="1132" y="786" width="252" height="40" rx="12" class="soft"/><text x="1194" y="812" class="text tiny">Ask follow-up</text>
</svg>

